<?xml version="1.0" encoding="UTF-8"?>
<!DOCTYPE svg PUBLIC "-//W3C//DTD SVG 1.1//EN" "http://www.w3.org/Graphics/SVG/1.1/DTD/svg11.dtd">
<!-- Creator: CorelDRAW X7 -->
<svg xmlns="http://www.w3.org/2000/svg" xml:space="preserve" width="40mm" height="40mm" version="1.1" style="shape-rendering:geometricPrecision; text-rendering:geometricPrecision; image-rendering:optimizeQuality; fill-rule:evenodd; clip-rule:evenodd"
viewBox="0 0 4000 4000"
 xmlns:xlink="http://www.w3.org/1999/xlink">
 <defs>
  <style type="text/css">
   <![CDATA[
    .fil0 {fill:#189D0E}
   ]]>
  </style>
 </defs>
 <g id="Layer_x0020_1">
  <metadata id="CorelCorpID_0Corel-Layer"/>
  <g id="_1952128587056">
   <path class="fil0" d="M474 3535c80,-5 604,-187 762,-238 79,-25 69,-13 137,19 734,353 1559,63 1961,-616 287,-484 243,-1139 -76,-1593 -103,-147 -262,-305 -409,-401 -685,-443 -1593,-249 -2020,354 -111,157 -208,324 -261,550 -81,343 -43,706 116,1018 78,155 52,125 -6,298 -69,204 -141,404 -204,609zm389 -380c105,-25 426,-162 504,-132 65,25 133,77 219,109 87,33 176,56 273,69 741,103 1391,-470 1415,-1195 10,-327 -102,-610 -294,-850 -103,-127 -314,-282 -475,-347 -936,-378 -1884,428 -1707,1380 40,214 99,303 191,464 40,70 -11,156 -41,244 -29,85 -62,172 -85,258z"/>
   <path class="fil0" d="M2803 2339c-77,-35 -303,-176 -389,-177 -71,59 -107,126 -164,185 -80,2 -197,-72 -252,-109 -76,-51 -125,-104 -185,-169 -298,-317 -33,-287 -18,-432 4,-45 -69,-225 -87,-272 -42,-108 -52,-163 -211,-132 -69,13 -148,114 -178,176 -131,274 73,570 230,767 111,139 222,252 375,350 89,57 380,193 516,188 230,-9 373,-137 363,-375z"/>
  </g>
 </g>
</svg>
